# Blender v2.91.0 OBJ File: 'sign1.blend'
# www.blender.org
mtllib sign1.mtl
o Cube
v 0.000000 0.201364 0.102209
v 0.000000 0.201364 -0.102209
v 0.000000 0.226075 0.086588
v 0.000000 0.226075 -0.086588
v 0.000000 0.245788 0.066116
v 0.000000 0.245788 -0.066116
v 0.000000 0.263591 0.032251
v 0.000000 0.263591 -0.032251
v 0.000000 0.272866 -0.007336
v 0.000000 0.272866 0.007336
v 0.024237 0.201364 0.102209
v 0.024237 0.201364 -0.102209
v 0.024237 0.226075 0.086588
v 0.024237 0.226075 -0.086588
v 0.024237 0.245788 0.066116
v 0.024237 0.245788 -0.066116
v 0.024237 0.263591 0.032251
v 0.024237 0.263591 -0.032251
v 0.024237 0.272866 -0.007336
v 0.024237 0.272866 0.007336
v 0.000000 -0.201364 0.102209
v 0.000000 -0.201364 -0.102209
v 0.000000 -0.226075 0.086588
v 0.000000 -0.226075 -0.086588
v 0.000000 -0.245788 0.066116
v 0.000000 -0.245788 -0.066116
v 0.000000 -0.263591 0.032251
v 0.000000 -0.263591 -0.032251
v 0.000000 -0.272866 -0.007336
v 0.000000 -0.272866 0.007336
v 0.000000 0.000000 0.102209
v 0.000000 0.000000 -0.102209
v 0.024237 -0.201364 0.102209
v 0.024237 -0.201364 -0.102209
v 0.024237 -0.226075 0.086588
v 0.024237 -0.226075 -0.086588
v 0.024237 -0.245788 0.066116
v 0.024237 -0.245788 -0.066116
v 0.024237 -0.263591 0.032251
v 0.024237 -0.263591 -0.032251
v 0.024237 -0.272866 -0.007336
v 0.024237 -0.272866 0.007336
v 0.024237 0.000000 0.102209
v 0.024237 0.000000 -0.102209
vt 0.000000 0.000000
vt 0.000000 0.000000
vt 0.000000 0.000000
vt 0.000000 0.000000
vt 0.000000 0.000000
vt 0.000000 0.000000
vt 0.000000 0.000000
vt 0.000000 0.000000
vt 0.000000 0.000000
vt 0.000000 0.000000
vt 0.000000 0.000000
vt 0.000000 0.000000
vt 0.000000 0.000000
vt 0.000000 0.000000
vt 0.000000 0.000000
vt 0.000000 0.000000
vt 0.000000 0.000000
vt 0.000000 0.000000
vt 0.000000 0.000000
vt 0.000000 0.000000
vt 0.000000 0.000000
vt 0.000000 0.000000
vt 0.000000 0.000000
vt 0.000000 0.000000
vt 0.000000 0.000000
vt 0.000000 0.000000
vt 0.000000 0.000000
vt 0.000000 0.000000
vt 0.000000 0.000000
vt 0.000000 0.000000
vt 0.000000 0.000000
vt 0.000000 0.000000
vt 0.000000 0.000000
vt 0.000000 0.000000
vt 0.000000 0.000000
vt 0.000000 0.000000
vt 0.000000 0.000000
vt 0.000000 0.000000
vt 0.000000 0.000000
vt 0.000000 0.000000
vt 0.000000 0.000000
vt 0.000000 0.000000
vt 0.000000 0.000000
vt 0.000000 0.000000
vn 1.0000 0.0000 0.0000
vn -1.0000 0.0000 0.0000
vn 0.0000 -0.7203 0.6936
vn 0.0000 0.0000 -1.0000
vn 0.0000 -0.5343 0.8453
vn 0.0000 -0.9372 0.3489
vn 0.0000 0.0000 1.0000
vn 0.0000 -0.9372 -0.3489
vn 0.0000 -0.8851 -0.4653
vn 0.0000 -0.7203 -0.6936
vn 0.0000 -1.0000 0.0000
vn 0.0000 -0.5343 -0.8453
vn 0.0000 -0.8851 0.4653
vn 0.0000 0.7203 0.6936
vn 0.0000 0.5343 0.8453
vn 0.0000 0.9372 0.3489
vn 0.0000 0.9372 -0.3489
vn 0.0000 0.8851 -0.4653
vn 0.0000 0.7203 -0.6936
vn 0.0000 1.0000 0.0000
vn 0.0000 0.5343 -0.8453
vn 0.0000 0.8851 0.4653
usemtl Material
s off
f 2/1/1 4/2/1 3/3/1 1/4/1
f 4/2/1 6/5/1 5/6/1 3/3/1
f 6/5/1 8/7/1 7/8/1 5/6/1
f 8/7/1 9/9/1 10/10/1 7/8/1
f 1/4/1 31/11/1 32/12/1 2/1/1
f 12/13/2 11/14/2 13/15/2 14/16/2
f 14/16/2 13/15/2 15/17/2 16/18/2
f 16/18/2 15/17/2 17/19/2 18/20/2
f 18/20/2 17/19/2 20/21/2 19/22/2
f 11/14/2 12/13/2 44/23/2 43/24/2
f 6/5/3 4/2/3 14/16/3 16/18/3
f 31/11/4 1/4/4 11/14/4 43/24/4
f 4/2/5 2/1/5 12/13/5 14/16/5
f 9/9/6 8/7/6 18/20/6 19/22/6
f 2/1/7 32/12/7 44/23/7 12/13/7
f 7/8/8 10/10/8 20/21/8 17/19/8
f 5/6/9 7/8/9 17/19/9 15/17/9
f 3/3/10 5/6/10 15/17/10 13/15/10
f 10/10/11 9/9/11 19/22/11 20/21/11
f 1/4/12 3/3/12 13/15/12 11/14/12
f 8/7/13 6/5/13 16/18/13 18/20/13
f 22/25/1 21/26/1 23/27/1 24/28/1
f 24/28/1 23/27/1 25/29/1 26/30/1
f 26/30/1 25/29/1 27/31/1 28/32/1
f 28/32/1 27/31/1 30/33/1 29/34/1
f 21/26/1 22/25/1 32/12/1 31/11/1
f 34/35/2 36/36/2 35/37/2 33/38/2
f 36/36/2 38/39/2 37/40/2 35/37/2
f 38/39/2 40/41/2 39/42/2 37/40/2
f 40/41/2 41/43/2 42/44/2 39/42/2
f 33/38/2 43/24/2 44/23/2 34/35/2
f 26/30/14 38/39/14 36/36/14 24/28/14
f 31/11/4 43/24/4 33/38/4 21/26/4
f 24/28/15 36/36/15 34/35/15 22/25/15
f 29/34/16 41/43/16 40/41/16 28/32/16
f 22/25/7 34/35/7 44/23/7 32/12/7
f 27/31/17 39/42/17 42/44/17 30/33/17
f 25/29/18 37/40/18 39/42/18 27/31/18
f 23/27/19 35/37/19 37/40/19 25/29/19
f 30/33/20 42/44/20 41/43/20 29/34/20
f 21/26/21 33/38/21 35/37/21 23/27/21
f 28/32/22 40/41/22 38/39/22 26/30/22
o Cylinder
v 0.012260 0.151457 0.222221
v 0.012260 0.151457 0.067991
v 0.010069 0.151673 0.222221
v 0.010069 0.151673 0.067991
v 0.007963 0.152312 0.222221
v 0.007963 0.152312 0.067991
v 0.006021 0.153350 0.222221
v 0.006021 0.153350 0.067991
v 0.004319 0.154746 0.222221
v 0.004319 0.154746 0.067991
v 0.002923 0.156448 0.222221
v 0.002923 0.156448 0.067991
v 0.001885 0.158390 0.222221
v 0.001885 0.158390 0.067991
v 0.001246 0.160496 0.222221
v 0.001246 0.160496 0.067991
v 0.001030 0.162687 0.222221
v 0.001030 0.162687 0.067991
v 0.001246 0.164878 0.222221
v 0.001246 0.164878 0.067991
v 0.001885 0.166985 0.222221
v 0.001885 0.166985 0.067991
v 0.002923 0.168926 0.222221
v 0.002923 0.168926 0.067991
v 0.004319 0.170628 0.222221
v 0.004319 0.170628 0.067991
v 0.006021 0.172025 0.222221
v 0.006021 0.172025 0.067991
v 0.007963 0.173062 0.222221
v 0.007963 0.173062 0.067991
v 0.010069 0.173701 0.222221
v 0.010069 0.173701 0.067991
v 0.012260 0.173917 0.222221
v 0.012260 0.173917 0.067991
v 0.014451 0.173701 0.222221
v 0.014451 0.173701 0.067991
v 0.016558 0.173062 0.222221
v 0.016558 0.173062 0.067991
v 0.018499 0.172025 0.222221
v 0.018499 0.172025 0.067991
v 0.020201 0.170628 0.222221
v 0.020201 0.170628 0.067991
v 0.021598 0.168926 0.222221
v 0.021598 0.168926 0.067991
v 0.022636 0.166985 0.222221
v 0.022636 0.166985 0.067991
v 0.023275 0.164878 0.222221
v 0.023275 0.164878 0.067991
v 0.023490 0.162687 0.222221
v 0.023490 0.162687 0.067991
v 0.023275 0.160496 0.222221
v 0.023275 0.160496 0.067991
v 0.022636 0.158390 0.222221
v 0.022636 0.158390 0.067991
v 0.021598 0.156448 0.222221
v 0.021598 0.156448 0.067991
v 0.020201 0.154746 0.222221
v 0.020201 0.154746 0.067991
v 0.018499 0.153350 0.222221
v 0.018499 0.153350 0.067991
v 0.016558 0.152312 0.222221
v 0.016558 0.152312 0.067991
v 0.014451 0.151673 0.222221
v 0.014451 0.151673 0.067991
vt 1.000000 0.500000
vt 0.968750 0.500000
vt 0.968750 1.000000
vt 1.000000 1.000000
vt 0.937500 0.500000
vt 0.937500 1.000000
vt 0.906250 0.500000
vt 0.906250 1.000000
vt 0.875000 0.500000
vt 0.875000 1.000000
vt 0.843750 0.500000
vt 0.843750 1.000000
vt 0.812500 0.500000
vt 0.812500 1.000000
vt 0.781250 0.500000
vt 0.781250 1.000000
vt 0.750000 0.500000
vt 0.750000 1.000000
vt 0.718750 0.500000
vt 0.718750 1.000000
vt 0.687500 0.500000
vt 0.687500 1.000000
vt 0.656250 0.500000
vt 0.656250 1.000000
vt 0.625000 0.500000
vt 0.625000 1.000000
vt 0.593750 0.500000
vt 0.593750 1.000000
vt 0.562500 0.500000
vt 0.562500 1.000000
vt 0.531250 0.500000
vt 0.531250 1.000000
vt 0.500000 0.500000
vt 0.500000 1.000000
vt 0.468750 0.500000
vt 0.468750 1.000000
vt 0.437500 0.500000
vt 0.437500 1.000000
vt 0.406250 0.500000
vt 0.406250 1.000000
vt 0.375000 0.500000
vt 0.375000 1.000000
vt 0.343750 0.500000
vt 0.343750 1.000000
vt 0.312500 0.500000
vt 0.312500 1.000000
vt 0.281250 0.500000
vt 0.281250 1.000000
vt 0.250000 0.500000
vt 0.250000 1.000000
vt 0.218750 0.500000
vt 0.218750 1.000000
vt 0.187500 0.500000
vt 0.187500 1.000000
vt 0.156250 0.500000
vt 0.156250 1.000000
vt 0.125000 0.500000
vt 0.125000 1.000000
vt 0.093750 0.500000
vt 0.093750 1.000000
vt 0.062500 0.500000
vt 0.062500 1.000000
vt 0.296822 0.485388
vt 0.341844 0.471731
vt 0.383337 0.449553
vt 0.419706 0.419706
vt 0.449553 0.383337
vt 0.471731 0.341844
vt 0.485388 0.296822
vt 0.490000 0.250000
vt 0.485388 0.203178
vt 0.471731 0.158156
vt 0.449553 0.116663
vt 0.419706 0.080294
vt 0.383337 0.050447
vt 0.341844 0.028269
vt 0.296822 0.014612
vt 0.250000 0.010000
vt 0.203178 0.014612
vt 0.158156 0.028269
vt 0.116663 0.050447
vt 0.080294 0.080294
vt 0.050447 0.116663
vt 0.028269 0.158156
vt 0.014611 0.203179
vt 0.010000 0.250000
vt 0.014612 0.296822
vt 0.028269 0.341844
vt 0.050447 0.383337
vt 0.080295 0.419706
vt 0.116663 0.449553
vt 0.158156 0.471731
vt 0.203179 0.485389
vt 0.250000 0.490000
vt 0.031250 0.500000
vt 0.031250 1.000000
vt 0.000000 0.500000
vt 0.000000 1.000000
vt 0.750000 0.490000
vt 0.703179 0.485389
vt 0.658156 0.471731
vt 0.616663 0.449553
vt 0.580295 0.419706
vt 0.550447 0.383337
vt 0.528269 0.341844
vt 0.514612 0.296822
vt 0.510000 0.250000
vt 0.514611 0.203179
vt 0.528269 0.158156
vt 0.550447 0.116663
vt 0.580294 0.080294
vt 0.616663 0.050447
vt 0.658156 0.028269
vt 0.703178 0.014612
vt 0.750000 0.010000
vt 0.796822 0.014612
vt 0.841844 0.028269
vt 0.883337 0.050447
vt 0.919706 0.080294
vt 0.949553 0.116663
vt 0.971731 0.158156
vt 0.985388 0.203178
vt 0.990000 0.250000
vt 0.985388 0.296822
vt 0.971731 0.341844
vt 0.949553 0.383337
vt 0.919706 0.419706
vt 0.883337 0.449553
vt 0.841844 0.471731
vt 0.796822 0.485388
vn -0.0980 -0.9952 0.0000
vn -0.2903 -0.9569 -0.0000
vn -0.4714 -0.8819 0.0000
vn -0.6344 -0.7730 0.0000
vn -0.7730 -0.6344 -0.0000
vn -0.8819 -0.4714 -0.0000
vn -0.9569 -0.2903 -0.0000
vn -0.9952 -0.0980 0.0000
vn -0.9952 0.0980 0.0000
vn -0.9569 0.2903 0.0000
vn -0.8819 0.4714 0.0000
vn -0.7730 0.6344 0.0000
vn -0.6344 0.7730 0.0000
vn -0.4714 0.8819 0.0000
vn -0.2903 0.9569 0.0000
vn -0.0980 0.9952 0.0000
vn 0.0980 0.9952 0.0000
vn 0.2903 0.9569 0.0000
vn 0.4714 0.8819 0.0000
vn 0.6344 0.7730 0.0000
vn 0.7730 0.6344 0.0000
vn 0.8819 0.4714 0.0000
vn 0.9569 0.2903 0.0000
vn 0.9952 0.0980 0.0000
vn 0.9952 -0.0980 0.0000
vn 0.9569 -0.2903 0.0000
vn 0.8819 -0.4714 -0.0000
vn 0.7730 -0.6344 0.0000
vn 0.6344 -0.7730 0.0000
vn 0.4714 -0.8819 0.0000
vn -0.0000 0.0000 -1.0000
vn 0.2903 -0.9569 0.0000
vn 0.0980 -0.9952 0.0000
vn -0.0000 0.0000 1.0000
usemtl None
s off
f 45/45/23 47/46/23 48/47/23 46/48/23
f 47/46/24 49/49/24 50/50/24 48/47/24
f 49/49/25 51/51/25 52/52/25 50/50/25
f 51/51/26 53/53/26 54/54/26 52/52/26
f 53/53/27 55/55/27 56/56/27 54/54/27
f 55/55/28 57/57/28 58/58/28 56/56/28
f 57/57/29 59/59/29 60/60/29 58/58/29
f 59/59/30 61/61/30 62/62/30 60/60/30
f 61/61/31 63/63/31 64/64/31 62/62/31
f 63/63/32 65/65/32 66/66/32 64/64/32
f 65/65/33 67/67/33 68/68/33 66/66/33
f 67/67/34 69/69/34 70/70/34 68/68/34
f 69/69/35 71/71/35 72/72/35 70/70/35
f 71/71/36 73/73/36 74/74/36 72/72/36
f 73/73/37 75/75/37 76/76/37 74/74/37
f 75/75/38 77/77/38 78/78/38 76/76/38
f 77/77/39 79/79/39 80/80/39 78/78/39
f 79/79/40 81/81/40 82/82/40 80/80/40
f 81/81/41 83/83/41 84/84/41 82/82/41
f 83/83/42 85/85/42 86/86/42 84/84/42
f 85/85/43 87/87/43 88/88/43 86/86/43
f 87/87/44 89/89/44 90/90/44 88/88/44
f 89/89/45 91/91/45 92/92/45 90/90/45
f 91/91/46 93/93/46 94/94/46 92/92/46
f 93/93/47 95/95/47 96/96/47 94/94/47
f 95/95/48 97/97/48 98/98/48 96/96/48
f 97/97/49 99/99/49 100/100/49 98/98/49
f 99/99/50 101/101/50 102/102/50 100/100/50
f 101/101/51 103/103/51 104/104/51 102/102/51
f 103/103/52 105/105/52 106/106/52 104/104/52
f 48/107/53 50/108/53 52/109/53 54/110/53 56/111/53 58/112/53 60/113/53 62/114/53 64/115/53 66/116/53 68/117/53 70/118/53 72/119/53 74/120/53 76/121/53 78/122/53 80/123/53 82/124/53 84/125/53 86/126/53 88/127/53 90/128/53 92/129/53 94/130/53 96/131/53 98/132/53 100/133/53 102/134/53 104/135/53 106/136/53 108/137/53 46/138/53
f 105/105/54 107/139/54 108/140/54 106/106/54
f 107/139/55 45/141/55 46/142/55 108/140/55
f 45/143/56 107/144/56 105/145/56 103/146/56 101/147/56 99/148/56 97/149/56 95/150/56 93/151/56 91/152/56 89/153/56 87/154/56 85/155/56 83/156/56 81/157/56 79/158/56 77/159/56 75/160/56 73/161/56 71/162/56 69/163/56 67/164/56 65/165/56 63/166/56 61/167/56 59/168/56 57/169/56 55/170/56 53/171/56 51/172/56 49/173/56 47/174/56
o Cylinder.001
v 0.012260 -0.167671 0.222221
v 0.012260 -0.167671 0.067991
v 0.010069 -0.167455 0.222221
v 0.010069 -0.167455 0.067991
v 0.007963 -0.166816 0.222221
v 0.007963 -0.166816 0.067991
v 0.006021 -0.165778 0.222221
v 0.006021 -0.165778 0.067991
v 0.004319 -0.164382 0.222221
v 0.004319 -0.164382 0.067991
v 0.002923 -0.162680 0.222221
v 0.002923 -0.162680 0.067991
v 0.001885 -0.160738 0.222221
v 0.001885 -0.160738 0.067991
v 0.001246 -0.158632 0.222221
v 0.001246 -0.158632 0.067991
v 0.001030 -0.156441 0.222221
v 0.001030 -0.156441 0.067991
v 0.001246 -0.154250 0.222221
v 0.001246 -0.154250 0.067991
v 0.001885 -0.152143 0.222221
v 0.001885 -0.152143 0.067991
v 0.002923 -0.150202 0.222221
v 0.002923 -0.150202 0.067991
v 0.004319 -0.148500 0.222221
v 0.004319 -0.148500 0.067991
v 0.006021 -0.147103 0.222221
v 0.006021 -0.147103 0.067991
v 0.007963 -0.146065 0.222221
v 0.007963 -0.146065 0.067991
v 0.010069 -0.145426 0.222221
v 0.010069 -0.145426 0.067991
v 0.012260 -0.145211 0.222221
v 0.012260 -0.145211 0.067991
v 0.014451 -0.145426 0.222221
v 0.014451 -0.145426 0.067991
v 0.016558 -0.146065 0.222221
v 0.016558 -0.146065 0.067991
v 0.018499 -0.147103 0.222221
v 0.018499 -0.147103 0.067991
v 0.020201 -0.148500 0.222221
v 0.020201 -0.148500 0.067991
v 0.021598 -0.150202 0.222221
v 0.021598 -0.150202 0.067991
v 0.022636 -0.152143 0.222221
v 0.022636 -0.152143 0.067991
v 0.023275 -0.154250 0.222221
v 0.023275 -0.154250 0.067991
v 0.023490 -0.156441 0.222221
v 0.023490 -0.156441 0.067991
v 0.023275 -0.158632 0.222221
v 0.023275 -0.158632 0.067991
v 0.022636 -0.160738 0.222221
v 0.022636 -0.160738 0.067991
v 0.021598 -0.162680 0.222221
v 0.021598 -0.162680 0.067991
v 0.020201 -0.164382 0.222221
v 0.020201 -0.164382 0.067991
v 0.018499 -0.165778 0.222221
v 0.018499 -0.165778 0.067991
v 0.016558 -0.166816 0.222221
v 0.016558 -0.166816 0.067991
v 0.014451 -0.167455 0.222221
v 0.014451 -0.167455 0.067991
vt 1.000000 0.500000
vt 0.968750 0.500000
vt 0.968750 1.000000
vt 1.000000 1.000000
vt 0.937500 0.500000
vt 0.937500 1.000000
vt 0.906250 0.500000
vt 0.906250 1.000000
vt 0.875000 0.500000
vt 0.875000 1.000000
vt 0.843750 0.500000
vt 0.843750 1.000000
vt 0.812500 0.500000
vt 0.812500 1.000000
vt 0.781250 0.500000
vt 0.781250 1.000000
vt 0.750000 0.500000
vt 0.750000 1.000000
vt 0.718750 0.500000
vt 0.718750 1.000000
vt 0.687500 0.500000
vt 0.687500 1.000000
vt 0.656250 0.500000
vt 0.656250 1.000000
vt 0.625000 0.500000
vt 0.625000 1.000000
vt 0.593750 0.500000
vt 0.593750 1.000000
vt 0.562500 0.500000
vt 0.562500 1.000000
vt 0.531250 0.500000
vt 0.531250 1.000000
vt 0.500000 0.500000
vt 0.500000 1.000000
vt 0.468750 0.500000
vt 0.468750 1.000000
vt 0.437500 0.500000
vt 0.437500 1.000000
vt 0.406250 0.500000
vt 0.406250 1.000000
vt 0.375000 0.500000
vt 0.375000 1.000000
vt 0.343750 0.500000
vt 0.343750 1.000000
vt 0.312500 0.500000
vt 0.312500 1.000000
vt 0.281250 0.500000
vt 0.281250 1.000000
vt 0.250000 0.500000
vt 0.250000 1.000000
vt 0.218750 0.500000
vt 0.218750 1.000000
vt 0.187500 0.500000
vt 0.187500 1.000000
vt 0.156250 0.500000
vt 0.156250 1.000000
vt 0.125000 0.500000
vt 0.125000 1.000000
vt 0.093750 0.500000
vt 0.093750 1.000000
vt 0.062500 0.500000
vt 0.062500 1.000000
vt 0.296822 0.485388
vt 0.341844 0.471731
vt 0.383337 0.449553
vt 0.419706 0.419706
vt 0.449553 0.383337
vt 0.471731 0.341844
vt 0.485388 0.296822
vt 0.490000 0.250000
vt 0.485388 0.203178
vt 0.471731 0.158156
vt 0.449553 0.116663
vt 0.419706 0.080294
vt 0.383337 0.050447
vt 0.341844 0.028269
vt 0.296822 0.014612
vt 0.250000 0.010000
vt 0.203178 0.014612
vt 0.158156 0.028269
vt 0.116663 0.050447
vt 0.080294 0.080294
vt 0.050447 0.116663
vt 0.028269 0.158156
vt 0.014611 0.203179
vt 0.010000 0.250000
vt 0.014612 0.296822
vt 0.028269 0.341844
vt 0.050447 0.383337
vt 0.080295 0.419706
vt 0.116663 0.449553
vt 0.158156 0.471731
vt 0.203179 0.485389
vt 0.250000 0.490000
vt 0.031250 0.500000
vt 0.031250 1.000000
vt 0.000000 0.500000
vt 0.000000 1.000000
vt 0.750000 0.490000
vt 0.703179 0.485389
vt 0.658156 0.471731
vt 0.616663 0.449553
vt 0.580295 0.419706
vt 0.550447 0.383337
vt 0.528269 0.341844
vt 0.514612 0.296822
vt 0.510000 0.250000
vt 0.514611 0.203179
vt 0.528269 0.158156
vt 0.550447 0.116663
vt 0.580294 0.080294
vt 0.616663 0.050447
vt 0.658156 0.028269
vt 0.703178 0.014612
vt 0.750000 0.010000
vt 0.796822 0.014612
vt 0.841844 0.028269
vt 0.883337 0.050447
vt 0.919706 0.080294
vt 0.949553 0.116663
vt 0.971731 0.158156
vt 0.985388 0.203178
vt 0.990000 0.250000
vt 0.985388 0.296822
vt 0.971731 0.341844
vt 0.949553 0.383337
vt 0.919706 0.419706
vt 0.883337 0.449553
vt 0.841844 0.471731
vt 0.796822 0.485388
vn -0.0980 -0.9952 0.0000
vn -0.2903 -0.9569 0.0000
vn -0.4714 -0.8819 -0.0000
vn -0.6344 -0.7730 -0.0000
vn -0.7730 -0.6344 -0.0000
vn -0.8819 -0.4714 -0.0000
vn -0.9569 -0.2903 0.0000
vn -0.9952 -0.0980 0.0000
vn -0.9952 0.0980 0.0000
vn -0.9569 0.2903 0.0000
vn -0.8819 0.4714 0.0000
vn -0.7730 0.6344 0.0000
vn -0.6344 0.7730 0.0000
vn -0.4714 0.8819 0.0000
vn -0.2903 0.9569 0.0000
vn -0.0980 0.9952 0.0000
vn 0.0980 0.9952 0.0000
vn 0.2903 0.9569 0.0000
vn 0.4714 0.8819 0.0000
vn 0.6344 0.7730 0.0000
vn 0.7730 0.6344 0.0000
vn 0.8819 0.4714 0.0000
vn 0.9569 0.2903 0.0000
vn 0.9952 0.0980 0.0000
vn 0.9952 -0.0980 0.0000
vn 0.9569 -0.2903 -0.0000
vn 0.8819 -0.4714 -0.0000
vn 0.7730 -0.6344 -0.0000
vn 0.6344 -0.7730 -0.0000
vn 0.4714 -0.8819 -0.0000
vn -0.0000 0.0000 -1.0000
vn 0.2903 -0.9569 0.0000
vn 0.0980 -0.9952 0.0000
vn -0.0000 0.0000 1.0000
usemtl None
s off
f 109/175/57 111/176/57 112/177/57 110/178/57
f 111/176/58 113/179/58 114/180/58 112/177/58
f 113/179/59 115/181/59 116/182/59 114/180/59
f 115/181/60 117/183/60 118/184/60 116/182/60
f 117/183/61 119/185/61 120/186/61 118/184/61
f 119/185/62 121/187/62 122/188/62 120/186/62
f 121/187/63 123/189/63 124/190/63 122/188/63
f 123/189/64 125/191/64 126/192/64 124/190/64
f 125/191/65 127/193/65 128/194/65 126/192/65
f 127/193/66 129/195/66 130/196/66 128/194/66
f 129/195/67 131/197/67 132/198/67 130/196/67
f 131/197/68 133/199/68 134/200/68 132/198/68
f 133/199/69 135/201/69 136/202/69 134/200/69
f 135/201/70 137/203/70 138/204/70 136/202/70
f 137/203/71 139/205/71 140/206/71 138/204/71
f 139/205/72 141/207/72 142/208/72 140/206/72
f 141/207/73 143/209/73 144/210/73 142/208/73
f 143/209/74 145/211/74 146/212/74 144/210/74
f 145/211/75 147/213/75 148/214/75 146/212/75
f 147/213/76 149/215/76 150/216/76 148/214/76
f 149/215/77 151/217/77 152/218/77 150/216/77
f 151/217/78 153/219/78 154/220/78 152/218/78
f 153/219/79 155/221/79 156/222/79 154/220/79
f 155/221/80 157/223/80 158/224/80 156/222/80
f 157/223/81 159/225/81 160/226/81 158/224/81
f 159/225/82 161/227/82 162/228/82 160/226/82
f 161/227/83 163/229/83 164/230/83 162/228/83
f 163/229/84 165/231/84 166/232/84 164/230/84
f 165/231/85 167/233/85 168/234/85 166/232/85
f 167/233/86 169/235/86 170/236/86 168/234/86
f 112/237/87 114/238/87 116/239/87 118/240/87 120/241/87 122/242/87 124/243/87 126/244/87 128/245/87 130/246/87 132/247/87 134/248/87 136/249/87 138/250/87 140/251/87 142/252/87 144/253/87 146/254/87 148/255/87 150/256/87 152/257/87 154/258/87 156/259/87 158/260/87 160/261/87 162/262/87 164/263/87 166/264/87 168/265/87 170/266/87 172/267/87 110/268/87
f 169/235/88 171/269/88 172/270/88 170/236/88
f 171/269/89 109/271/89 110/272/89 172/270/89
f 109/273/90 171/274/90 169/275/90 167/276/90 165/277/90 163/278/90 161/279/90 159/280/90 157/281/90 155/282/90 153/283/90 151/284/90 149/285/90 147/286/90 145/287/90 143/288/90 141/289/90 139/290/90 137/291/90 135/292/90 133/293/90 131/294/90 129/295/90 127/296/90 125/297/90 123/298/90 121/299/90 119/300/90 117/301/90 115/302/90 113/303/90 111/304/90
